# xmcd
#
# Track frame offsets:
#	150
#	16850
#	27282
#	42827
#	63435
#	79557
#	97775
#	110760
#	127630
#	143607
#	158600
#	170750
#	187935
#	204070
#	221537
#	239460
#	252125
#	266300
#
# Disc length: 3748 seconds
#
# Revision: 1
# Processed by: cddbd v1.5.2PL0 Copyright (c) Steve Scherf et al.
# Submitted via: audiograbber 1.83.01
#
DISCID=d80ea212
DTITLE=Various Artist - CDX 54 April 1993
DYEAR=1993
DGENRE=Country
TTITLE0=Corbin - Hanner - Any Road
TTITLE1=The Cactus Brothers - Crazy Heart
TTITLE2=Hank Williams Jr. - Diamond Mine
TTITLE3=The Rankin Family - Fare Thee Well Love
TTITLE4=Larry Boone - Get In Line
TTITLE5=Steven Curtis Chapman - Go There With You
TTITLE6=Marty Stuart - Hey Baby
TTITLE7=The Nitty Gritty Dirt Band - Little Angel
TTITLE8=Cimmaron - Not Through Breakin' My Heart
TTITLE9=Dixiana - Now You're Talkin'
TTITLE10=Brian James - One Single Night
TTITLE11=Tanya Tucker with Delbert McClinton - Tell Me About It
TTITLE12=Palomino Road - The Best That You Can Do
TTITLE13=Ronny Cox - The Cowboy Rides
TTITLE14=Mary Chapin Carpenter - The Hard Way
TTITLE15=Debra Burns - You Put Out An Old Flame Last Night
TTITLE16=Celinda Pink - Pack Your Lies And Go
TTITLE17=Hank Williams Jr. - S.O.B., I'm Tired
EXTD=
EXTT0=
EXTT1=
EXTT2=
EXTT3=
EXTT4=
EXTT5=
EXTT6=
EXTT7=
EXTT8=
EXTT9=
EXTT10=
EXTT11=
EXTT12=
EXTT13=
EXTT14=
EXTT15=
EXTT16=
EXTT17=
PLAYORDER=
